# xmcd CD database file
#
# Track frame offsets:
#	150
#	12300
#	25375
#	34207
#	44027
#	54922
#	66877
#	76637
#	88855
#	100747
#	113120
#	123597
#	135747
#	146310
#	159075
#	170777
#	182780
#	195170
#	204050
#	215292
#	227107
#	235820
#
# Disc length: 3302 seconds
#
# Revision: 1
# Processed by: cddbd v1.5.2PL0 Copyright (c) Steve Scherf et al.
# Submitted via: CDex 1.70beta2
#
DISCID=220ce416
DTITLE=Jimmie Skinner - 22 Greatest HIts
DYEAR=1997
DGENRE=Country
TTITLE0=I Found My Girl in the Good Old USA
TTITLE1=Will You Be Satisfied That Way
TTITLE2=Dark Hollow
TTITLE3=Whoopie Liza
TTITLE4=Don't Do it and it Won't be on Your Mind
TTITLE5=The Mystery of Little Kathy
TTITLE6=Sunny Caroline
TTITLE7=Let's say goodbye like we said hello
TTITLE8=The Cork and the Bottle
TTITLE9=Baby You Don't Know My Mind
TTITLE10=Jimmie's Ramblin' Blues
TTITLE11=Wrong Side of the Tracks
TTITLE12=Doin' My Time
TTITLE13=Judy on My Mind
TTITLE14=Don't Give Your Heart to a Rambler
TTITLE15=That's the Life I Have to Live
TTITLE16=Good Time Woman
TTITLE17=Blugrass Lovin' Man
TTITLE18=There's a Love Light Shinin'
TTITLE19=Everybody Ought to Have a Song
TTITLE20=Fallen Leaves
TTITLE21=Time Won't Erase My Worried Mind
EXTD=YEAR: 1997
EXTT0=
EXTT1=
EXTT2=
EXTT3=
EXTT4=
EXTT5=
EXTT6=
EXTT7=
EXTT8=
EXTT9=
EXTT10=
EXTT11=
EXTT12=
EXTT13=
EXTT14=
EXTT15=
EXTT16=
EXTT17=
EXTT18=
EXTT19=
EXTT20=
EXTT21=
PLAYORDER=
